<svg xmlns="http://www.w3.org/2000/svg"><metadata>Generated by IcoMoon</metadata><defs><font id="icomoon" horiz-adv-x="1024"><font-face ascent="960" descent="-64" units-per-em="1024"/><glyph horiz-adv-x="512"/><glyph d="M830.617 461.999h164.491l-246.152-246.152-246.152 246.152h226.32q1.167 38.497-8.166 75.828t-29.165 71.746-48.998 63.581q-43.165 43.165-98.577 65.329t-111.995 22.165-112.576-22.165-99.16-65.329q-86.329-87.494-86.329-211.155t86.329-211.155q68.83-67.663 163.325-83.413t176.157 25.082l73.496-73.496q-113.16-67.663-249.068-51.915t-233.905 113.744q-76.996 75.828-103.826 178.489t0.584 205.322 103.245 178.489q58.329 57.164 132.409 87.494t149.324 30.331 149.908-29.749 131.827-87.494 86.911-130.659 29.749-151.075z" glyph-name="reload" unicode=""/><glyph d="M512 923.25q-57.188 0-111.094-17.344t-97.032-49.218-75.938-73.594-50.156-94.218-17.344-108.75q0-66.562 19.218-136.406t50.156-128.906 68.438-114.375 75-97.5 68.906-74.062 50.156-48.75l19.688-16.875q7.5 6.562 20.156 17.812t49.218 49.218 69.844 77.344 73.594 97.5 69.844 115.312 49.218 126.562 19.688 133.125q0 70.312-27.656 133.594t-75 109.218-112.5 73.125-136.406 27.188zM512 379.5q-30.938 0-60.468 9.375t-52.968 27.188-41.25 41.718-27.656 52.968-9.844 60.938q0 78.75 56.25 135t135.938 56.25q52.5 0 96.562-25.782t69.844-69.844 25.782-96.094-25.782-96.094-69.844-69.844-96.562-25.782z" glyph-name="map" unicode=""/><glyph d="M676.218 607.106h10.584q5.774 0 11.064-0.48t11.064-1.442q-14.432 68.311-64.463 123.15t-123.632 85.628-156.343 30.787q-92.362 0-170.774-38.483t-124.594-105.352-46.182-145.761q0-69.272 35.598-127t101.021-103.909l-33.673-102.946 119.301 60.612q86.591-17.318 119.301-17.318h16.355q7.696 0 15.395 0.963-10.584 36.561-10.584 71.196 0 74.082 38.483 136.14t105.352 98.136 146.723 36.078zM492.456 699.468q9.621 0 17.8-2.886t13.47-8.179 8.179-13.47 2.886-17.8q0-12.507-5.291-22.129t-14.913-14.913-22.129-5.291q-20.204 0-35.598 12.027t-15.395 30.308 15.395 30.308 35.598 12.027zM253.85 614.801q-20.204 0-36.078 12.027t-15.875 30.308q0 12.507 7.696 22.609t19.243 14.913 25.014 4.811q19.243 0 30.787-11.544t11.544-30.787-11.544-30.787-30.787-11.544zM987.944 341.561q0 66.386-40.409 123.632t-107.275 90.439-142.874 33.192q-121.227 0-205.411-72.639t-84.186-174.623q0-67.349 38.004-124.594t104.87-90.439 146.723-33.192q34.636 0 102.946 17.318l93.325-50.993-25.976 85.628q120.264 89.477 120.264 196.271zM603.099 383.895q-12.507 0-23.091 10.584t-10.584 23.571 10.584 23.571 23.091 10.584q19.243 0 31.268-10.102t12.027-23.571-12.027-24.053-31.268-10.584zM791.673 383.895q-13.47 0-24.053 10.584t-10.584 24.053q0 4.811 1.925 9.621t5.291 9.139 7.696 7.696 9.139 5.291 10.584 1.925q18.281 0 30.308-10.584t12.027-23.091q0-8.658-5.291-16.837t-15.395-12.99-21.648-4.811z" glyph-name="weiixn" unicode=""/><glyph d="M744.692 474.626q-8.521 2.131-11.716 3.728t-6.39 7.454 2.131 13.313q24.496 61.771 0 95.852-23.429 33.016-80.941 33.016t-130.997-30.886v-1.064q-25.56-9.585-24.496 5.326l2.131 6.39q23.429 77.746-10.649 112.891-39.406 39.406-130.997 3.195t-182.116-126.737q-44.73-45.796-76.149-92.124t-48.458-92.124-17.039-87.331q0-76.682 59.107-136.853t149.633-89.993 190.637-29.821q62.835 0 121.945 11.716t105.437 31.95 85.2 47.394 64.966 57.51 39.937 62.835 13.844 62.302q0 50.055-33.547 83.603t-81.474 48.458zM429.449 126.366q-118.217-11.716-207.676 35.145t-96.916 125.671q-5.326 52.186 28.755 99.578t97.449 79.344 141.115 40.471q118.217 11.716 207.145-35.678t96.383-126.204q8.521-83.072-77.746-149.102-76.682-58.576-188.506-69.225zM916.693 766.972q-46.327 51.653-110.76 72.42t-129.399 5.857q-14.911-3.195-22.898-15.975t-4.792-27.691 15.442-23.429 27.157-5.326q46.86 10.649 92.657-4.259t78.279-51.653 42.601-85.2-4.792-92.124q-5.326-14.911 1.597-28.224t21.301-18.106 27.691 2.131 18.637 20.767v1.064q20.234 61.771 6.923 129.932t-59.64 119.814zM806.464 536.395q12.78-4.259 23.962 2.131t15.442 18.106q10.649 30.886 3.728 63.9t-29.288 58.576-53.784 35.145-63.369 3.195q-4.259-1.064-9.052-3.728t-7.454-6.39-4.792-7.987-2.662-9.585 0.533-10.649q2.131-12.78 13.313-19.703t23.962-4.792q14.911 3.195 30.352-1.597t26.626-17.039 14.377-28.224-2.131-30.886q-4.259-12.78 1.597-24.496t18.637-15.975zM444.36 425.635q-55.381 14.911-111.293-10.118t-80.408-75.084q-25.56-51.12-3.728-101.175t78.279-68.161q58.576-19.17 118.75 6.39t84.669 80.941q23.429 54.315-2.131 102.773t-84.136 64.433zM387.381 250.44q-11.182-18.637-32.483-25.56t-39.406 1.597-22.898 27.157 5.857 36.742q7.454 11.716 19.703 19.17t25.56 9.052 26.093-3.728q19.17-8.521 23.962-27.157t-6.39-37.276zM437.97 315.939q-4.259-7.454-12.247-10.118t-15.442 0.533q-4.259 1.064-6.923 5.326t-2.662 9.052 3.195 9.052q4.259 7.454 11.716 10.118t14.377 0 9.585-9.585-1.597-14.377z" glyph-name="sina" unicode=""/><glyph d="M480.131 217.415l-435.862 397.431q-11.248 11.248-11.248 28.12t11.717 29.057 28.12 12.185 28.589-12.185l409.616-367.436 409.616 367.436q4.687 4.687 10.311 7.967t11.717 3.749 12.185 0 11.717-3.749 10.311-7.967q12.185-12.185 12.185-29.057t-12.185-28.12l-435.862-397.431q-12.185-12.185-29.995-11.248-18.747-0.937-30.932 11.248z" glyph-name="down" unicode=""/><glyph d="M539.221 678.645l439.726-400.347q12.19-10.313 13.126-27.19t-10.313-29.065-27.659-13.126-28.596 10.313l-413.473 375.97-413.473-375.97q-12.19-11.251-28.596-10.313t-27.659 13.126-10.313 29.065 13.126 27.19l439.726 400.347q12.19 10.313 27.19 10.313t27.19-10.313z" glyph-name="up" horiz-adv-x="1025" unicode=""/><glyph d="M283.25 478l398.438 437.812q12.188 12.188 29.532 12.188t29.062-11.718 11.718-28.594-12.188-28.125l-368.438-411.562 368.438-411.562q12.188-11.25 12.188-28.125t-11.718-28.594-29.062-11.718-29.532 12.188l-398.438 437.812q-12.188 12.188-11.25 30-0.938 5.625 0.468 10.782t4.218 10.312 6.562 8.906z" glyph-name="left" unicode=""/><glyph d="M740.75 418l-398.438-437.812q-12.188-12.188-29.532-12.188t-29.062 11.718-11.718 28.594 12.188 28.125l368.438 411.562-368.438 411.562q-6.562 5.625-9.375 13.125t-2.812 15 2.812 15 9.375 13.125q1.875 2.812 5.156 5.156t6.562 3.75 6.562 2.344 7.032 0.938h7.5q2.812 0 6.094-0.938t6.562-2.344 6.562-3.75 6.094-5.156l398.438-437.812q12.188-12.188 11.25-30 0.938-5.625-0.468-10.782t-4.218-10.312-6.562-8.906z" glyph-name="right" unicode=""/><glyph d="M512.968 317.306h-14.522q-6.777 0-13.553 0.484t-13.553 1.452-13.069 1.936-13.069 2.42-12.585 3.388q-19.362 5.809-19.362 25.171 0 10.649 7.745 17.91t18.394 7.261q2.904 0 5.809-0.484t5.809-1.452q30.011-6.777 61.958-6.777 109.395 0 187.328 74.544t77.932 180.067-77.932 180.067-187.812 74.544-187.328-74.544-77.448-180.067q0-67.767 34.852-126.821 3.872-6.777 3.872-13.553 0-10.649-7.745-17.91t-19.362-7.261q-7.745 0-14.522 4.356t-9.681 11.133q-20.33 33.884-30.495 71.639t-10.165 78.416q0 83.257 42.596 153.928t115.688 111.332 160.221 40.66q64.863 0 123.917-24.203t101.651-64.863 67.767-97.778 25.171-119.076q0-83.257-42.596-153.928t-116.172-111.332-159.737-40.66zM510.064 719.068q-44.533 0-75.512-30.011t-30.979-72.608q0-12.585 2.42-23.718t8.229-21.782q-6.777-5.809-14.037-13.553t-21.298-23.234-27.591-34.368-30.011-44.533-30.011-55.666-27.591-64.863-23.234-75.996-15.006-85.193-5.325-96.326 8.229-106.491v-0.968l0.484-1.452t1.936-2.904 3.388-2.904 4.841-2.42 7.261-1.452 9.197-0.484q7.745 0 14.522 4.841t6.777 12.585q-1.936 31.947-2.904 55.182t0 67.767 6.293 80.836 17.426 85.677 30.979 91.486 50.341 88.581 71.155 86.161q27.107-18.394 60.022-18.394 29.043 0 53.73 14.037t39.208 37.756 14.522 51.793q0 42.596-31.463 72.608t-75.996 30.011z" glyph-name="txwb" unicode=""/><glyph d="M771.636 216h-254.181q-53.454 0-79.635 30t-26.181 74.727v26.181q0 9.819 0.546 29.454t0.546 43.635h358.908q43.635 0 73.092 26.727t29.454 96.546q0 44.727-14.727 74.181t-37.092 41.454-51.819 12l-360-1.092q0 20.727 1.092 60 0 24 0.546 35.454t0 31.092-2.181 29.454-4.365 24.546-7.635 21.819-11.454 17.454-16.365 15.273-22.365 9.819-28.908 7.092-37.092 2.181q-32.727 0-54-6t-39.273-22.365-25.635-48-7.635-80.727v-64.365q0-4.365 0.546-10.908t0.546-13.092v-39.273q0-6.546-0.546-19.635t-0.546-19.635q0-21.819-0.546-67.092t-0.546-69.273v-177.819q1.092-76.365 21.273-135.819t49.635-93.273 66-56.181 66.546-29.454 55.092-7.092h360q17.454 0 30.546 3.273t30.546 14.727 27.273 39.273 9.819 70.365q0 124.365-99.273 124.365z" glyph-name="twitter" unicode=""/><glyph d="M511.528 924.823q-130.049 0-240.709-64.315t-174.975-174.975-64.315-240.709 64.315-240.709 174.975-174.975 240.709-64.315 240.709 64.315 174.975 174.975 64.315 240.709-64.315 240.709-174.975 174.975-240.709 64.315zM511.528 54.675q-106.404 0-195.783 52.492t-141.872 141.872-52.492 195.783 52.492 195.783 141.872 141.872 195.783 52.492 195.783-52.492 141.872-141.872 52.492-195.783-52.492-195.783-141.872-141.872-195.783-52.492zM391.882 655.266l359.409-210.915-359.409-209.97v420.886z" glyph-name="play" unicode=""/><glyph d="M459.838 626.172l11.228 3.235c39.209 11.417 59.555 56.757 45.509 101.308l-16.387 51.826-2.381 7.416-1.363 4.38-2.371 7.471-16.345 51.758c-13.217 41.847-52.139 68.083-89.362 61.645-7.585-1.122-17.695-3.431-30.694-7.021l90.096-285.556c3.871 1.161 7.846 2.286 12.070 3.538zM570.997 253.671c-0.339-0.179-0.636-0.323-0.949-0.483l-47.394-26.699c-36.897 49.23-71.331 109.385-99.445 177.084-0.033 0.033-0.065 0.033-0.075 0.068 0 0.020-0.026 0.072-0.026 0.091-28.14 67.695-46.559 134.62-55.446 195.613l52.172 15.171c0.339 0.088 0.662 0.232 1.014 0.339 0.179 0.072 0.388 0.111 0.548 0.179l-89.991 285.344c-8.026-2.518-16.726-5.286-26.402-8.469-89.31-29.419-83.107-275.192 22.173-528.531 0-0.036 0.013-0.068 0.033-0.088 0.033-0.036 0.059-0.072 0.059-0.072 95.816-230.459 244.72-397.622 333.778-393.425 0 0 16.801 2.772 13.42 2.165 3.897 1.034 7.677 2.338 11.235 4.213 9.037 4.686 17.141 8.939 24.534 12.94l-138.719 264.847c-0.173-0.095-0.326-0.183-0.515-0.29zM779.89 126.789l-28.809 55.025-2.097 4.057-3.623 6.917-25.14 48.092c-21.661 41.368-68.034 58.613-103.718 38.527l-10.165-5.736c-3.789-2.126-7.396-4.181-10.931-6.203l138.788-265.020c11.694 6.793 20.369 12.366 26.516 17.066 30.678 22.14 39.473 68.425 19.179 107.275z" glyph-name="tel" unicode=""/><glyph d="M932 88c-91.86-4.020-266.88-19.74-361.86-69.060-4.5-28.62-28.2-50.94-58.14-50.94s-53.64 22.32-58.2 50.94c-94.92 49.32-270 65.040-361.8 69.060-33.12 0-60 26.88-60 60v720c0 33.12 26.88 60 60 60 2.1 0 3.84-0.96 5.88-1.2 412.68-10.68 414.12-118.8 414.12-118.8s1.44 108.12 414.060 118.8c2.040 0.24 3.84 1.2 5.94 1.2 33.12 0 60-26.88 60-60v-720c0-33.12-26.88-60-60-60zM452 739.96c-77.4 39.36-205.5 55.74-300 62.7v-597.96c161.040-8.16 251.16-32.28 300-56.7v591.96zM872 802.66c-94.56-6.96-222.6-23.34-300-62.7v-591.96c48.84 24.42 138.96 48.54 300 56.7v597.96zM812 688c-180 0-180-60-180-60v-120c0 60 180 60 180 60v120zM812 448c-180 0-180-60-180-60v-120c0 60 180 60 180 60v120zM392 628c0 0 0 60-180 60v-120c0 0 180 0 180-60v120zM392 388c0 0 0 60-180 60v-120c0 0 180 0 180-60v120z" glyph-name="book" unicode=""/><glyph d="M927.98 122.86h-127.98v-154.86l-160.020 154.86h-351.96c-35.4 0-64.020 27.72-64.020 61.92v495.48c0 34.2 28.62 61.92 64.020 61.92h639.96c35.34 0 64.020-27.72 64.020-61.92v-495.48c0-34.2-28.68-61.92-64.020-61.92zM864.020 618.34h-512.040v-371.64h512.040v371.64zM159.98 680.26v-371.58h-64.020c-35.34 0-63.96 27.72-63.96 61.92v495.48c0 34.2 28.62 61.92 63.96 61.92h640.020c35.34 0 64.020-27.72 64.020-61.92v-61.92h-523.98c-98.7 0-116.040-30.3-116.040-123.9z" glyph-name="comments" unicode=""/><glyph d="M1130.57 64.048h-895.884c-35.322 0-63.989 28.669-63.989 63.989v511.931h1023.861v-511.931c0-35.322-28.669-63.989-63.989-63.989zM731.064 489.595c-23.739 13.885-51.003 22.395-80.44 22.395-88.373 0-159.981-71.608-159.981-159.981s71.608-159.981 159.981-159.981c29.437 0 56.693 8.509 80.44 22.395-29.883 38.077-48.443 85.431-48.443 137.579s18.555 99.509 48.443 137.579zM906.597 511.989c-88.373 0-159.981-71.608-159.981-159.981s71.608-159.981 159.981-159.981c88.373 0 159.981 71.608 159.981 159.981s-71.608 159.981-159.981 159.981zM170.696 767.955c0 35.322 28.669 63.989 63.989 63.989h895.884c35.322 0 63.989-28.669 63.989-63.989v-63.989h-1023.861v63.989z" glyph-name="card" horiz-adv-x="1365" unicode=""/><glyph d="M384-16c-192.212 0-348 77.894-348 174v0 97.846c0-96.048 155.788-155.846 348-155.846s348 59.798 348 155.846v-97.846c0-96.106-155.788-174-348-174zM384 158c-192.212 0-348 77.894-348 174v97.846c0-96.048 155.788-155.846 348-155.846s348 59.798 348 155.846v-97.846c0-96.106-155.788-174-348-174zM384 332c-192.212 0-348 77.894-348 174v97.846c0-96.048 155.788-155.846 348-155.846s348 59.798 348 155.846v-97.846c0-96.106-155.788-174-348-174zM384 506c-192.212 0-348 77.894-348 174v58c0 96.106 155.788 174 348 174s348-77.894 348-174v-58c0-96.106-155.788-174-348-174z" glyph-name="data" horiz-adv-x="768" unicode=""/><glyph d="M992 268h-480v120h-300v480h420v-120h360l-120-240 120-240zM512 748h-180v-240h180v240zM797.84 628h-165.84v-240h165.84l-60 120 60 120zM92-32c-33.12 0-60 26.82-60 60v840c0 33.12 26.88 60 60 60 33.18 0 60-26.88 60-60v-840c0-33.18-26.82-60-60-60z" glyph-name="flag" unicode=""/><glyph d="M932 448h-120v-420c0-33.12-26.88-60-60-60h-120v240c0 33.12-26.88 60-60 60h-120c-33.12 0-60-26.88-60-60v-240h-120c-33.12 0-60 26.88-60 60v420h-120l-60 60 480 420 480-420-60-60zM512 628c-66.3 0-120-53.7-120-120s53.7-120 120-120c66.3 0 120 53.7 120 120s-53.7 120-120 120z" glyph-name="home" unicode=""/><glyph d="M992-32v0 0 0 0zM752 448v-480l-120 120-120-120-120 120-120-120-120 120-120-120v780c0 99.42 80.58 180 180 180h540c132.54 0 240-107.46 240-240s-107.46-240-240-240zM632 808h-420c-33.12 0-60-26.88-60-60v-480l120-120 120 120 120-120 120 120v540zM752 808v-240c66.3 0 120 53.7 120 120s-53.7 120-120 120zM272 448h240v-60h-240v60zM272 568h240v-60h-240v60zM272 688h240v-60h-240v60z" glyph-name="pap" unicode=""/><glyph d="M752 32.74v55.26c0 28.56-5.88 55.62-15 81.060 81.66 66 135 165.72 135 278.94 0 198.84-161.16 360-360 360s-360-161.16-360-360c0-113.22 53.34-212.94 135-278.94-9.18-25.44-15-52.5-15-81.060v-55.26c-143.34 83.040-240 237.72-240 415.26 0 265.080 214.92 480 480 480s480-214.92 480-480c0-177.54-96.66-332.22-240-415.26zM512 748c165.66 0 300-134.34 300-300 0-89.64-40.080-169.14-102.42-224.1-23.22 33.72-55.2 60.54-92.22 78.72 45.060 32.76 74.64 85.44 74.64 145.38 0 99.42-80.58 180-180 180s-180-80.58-180-180c0-59.94 29.58-112.62 74.64-145.38-37.020-18.18-69-45-92.28-78.72-62.28 54.96-102.36 134.46-102.36 224.1 0 165.66 134.34 300 300 300zM392 448c0 66.3 53.7 120 120 120 66.24 0 120-53.7 120-120s-53.76-120-120-120c-66.3 0-120 53.7-120 120zM512 268c99.42 0 180-80.58 180-180v-120h-360v120c0 99.42 80.58 180 180 180z" glyph-name="pod" unicode=""/><glyph d="M817.702 767.641v-239.158h-0.238c-0.096-111.007-46.24-210.204-118.96-282.305l0.714-0.667-222.206-222.349-54.622-55.099-0.334 0.285-0.334-0.285-53.385 53.861 0.096 0.096-223.539 223.492 0.905 0.905c-72.577 72.052-118.626 171.201-118.722 282.066h0.572v238.206l-0.047 0.096 0.047 0.047v0.81h2l392.836 158.487 391.978-158.487h3.239zM105.893 528.482c0.096-91.197 38.526-172.916 99.387-231.064l161.439-162.869c-0.524 0.047-0.952 0.238-1.428 0.334l58.003-58.003 58.432 58.432c-0.618-0.096-1.239-0.38-1.857-0.476l164.297 164.82h-1.953c59.337 58.003 96.578 138.914 96.674 228.824h-0.191v187.726l-316.64 128.008-315.401-127.532v-188.202h-0.763zM383.197 687.921h79.005v-159.439h157.962v-79.673h-157.962v-149.487l-50.907-0.096-28.096 0.476v149.104h-158.011v79.673h158.011v159.439z" glyph-name="safe" horiz-adv-x="845" unicode=""/><glyph d="M1013.291 401.237l-146.304-143.957c-14.251-14.080-37.419-14.080-51.712 0-14.251 14.037-14.251 36.821 0 50.859l80.725 97.195h-512c-20.224 0-42.667 22.784-42.667 42.667s24.363 42.624 42.667 42.667h469.333l-42.667 42.667c-14.293 14.080-9.643 48.768 4.608 62.848 14.293 14.037 37.461 14.037 51.712 0l146.304-144c7.125-7.040 10.709-16.256 10.709-25.472s-3.584-18.432-10.709-25.472zM682.667 576c-20.224 0-42.667 22.784-42.667 42.667v256h-554.667v-853.333h554.667v256c0 19.883 22.443 42.667 42.667 42.667 20.181 0 42.667-22.784 42.667-42.667v-298.667c0-19.883-22.485-42.667-42.667-42.667h-646.101c-20.181 0-36.565 16.128-36.565 36.011v951.979c0 19.883 16.384 36.011 36.565 36.011h658.304c20.181 0 30.464-22.784 30.464-42.667v-298.667c0-19.883-22.485-42.667-42.667-42.667z" glyph-name="out" unicode=""/><glyph d="M1292.614 947.665c-14.708 7.261-34.257 12.335-60.556 12.335h-1067.799c-26.252 0-45.801-5.073-60.509-12.335-60.649-25.135-103.75-86.481-103.75-158.348v-682.636c0-71.401 42.496-132.468 102.447-157.929 14.615-7.447 34.397-12.753 61.812-12.753h1067.799c27.462 0 47.244 5.306 61.859 12.753 59.951 25.46 102.447 86.528 102.447 157.929v682.636c0 71.866-43.101 133.213-103.75 158.348zM1314.211 789.318v-682.636c0-11.078-2.188-21.597-5.911-31.325-5.26 6.423-11.264 12.94-18.665 19.689l-341.597 310.505 352.721 389.306c4.282 4.748 7.68 9.309 11.124 13.917 1.396-6.284 2.327-12.753 2.327-19.456zM1232.058 874.682c7.587 0 14.755-1.443 21.69-3.398-2.048-4.143-5.772-10.193-12.8-17.92l-488.215-538.903c-29.231-32.303-79.872-32.303-109.103 0l-488.215 538.903c-7.028 7.727-10.752 13.777-12.8 17.92 6.935 1.955 14.103 3.398 21.644 3.398h1067.799zM88.017 75.357c-3.677 9.728-5.865 20.247-5.865 31.325v682.636c0 6.703 0.931 13.172 2.327 19.456 3.444-4.608 6.796-9.169 11.124-13.917l352.721-389.306-341.597-310.505c-7.401-6.749-13.405-13.265-18.711-19.689zM164.259 21.318c-4.003 0-7.82 0.652-11.683 1.257 2.188 2.42 4.841 5.167 8.285 8.285l343.785 312.506 79.174-87.412c30.301-33.42 70.935-51.852 114.362-51.852s84.061 18.432 114.362 51.852l79.174 87.412 343.785-312.506c3.444-3.119 6.097-5.865 8.285-8.285-3.863-0.605-7.68-1.257-11.729-1.257h-1067.799z" glyph-name="mail" horiz-adv-x="1396" unicode=""/><glyph d="M1062.558 96.020c-0.276 2.599-0.591 5.12-0.591 7.483 0 101.1-140.839 218.506-348.357 263.168 42.535 48.404 75.737 114.097 75.737 188.77v130.954c0 155.963-110.238 273.605-257.024 273.605s-257.024-117.642-257.024-273.605v-130.954c0-78.651 20.165-147.456 66.875-196.49-177.191-45.568-337.329-145.093-337.329-256.63 0-2.402-2.324-4.884-2.599-7.404-1.694-16.699-6.735-55.729 38.321-79.124 96.571-49.979 279.906-79.793 491.323-79.793 211.377 0 395.028 29.814 491.638 79.833 45.017 23.355 40.724 63.173 39.030 80.187zM343.828 555.441v130.954c0 116.539 80.817 204.446 188.495 204.446 107.599 0 188.455-87.906 188.455-204.446v-130.954c0-116.539-80.857-204.446-188.455-204.446-107.678 0-188.495 87.906-188.495 204.446zM991.862 77.351c-86.055-44.505-262.459-72.192-460.485-72.192-197.986 0-374.43 27.687-460.406 72.153-1.575 0.866-2.599 1.536-3.033 1.654-0.079 2.166 0.354 6.065 0.63 8.822 0.512 4.962 0.945 9.846 0.945 14.533 0 61.361 137.177 169.866 338.471 203.579 32.768-15.36 69.356-24.064 108.702-24.064 42.338 0 81.447 10.043 115.948 27.648 213.465-28.869 360.645-142.69 360.645-205.982 0-4.569 0.433-9.452 0.945-14.454 0.354-3.623 0.906-9.058 1.26-9.334 0 0-0.866-0.945-3.623-2.363z" glyph-name="user" horiz-adv-x="1065" unicode=""/><glyph d="M212.006-31.992h599.99c99.358 0 179.996 80.559 179.996 179.996v599.99c0 99.437-80.638 179.996-179.996 179.996h-272.315c20.64-35.76 32.319-76.719 32.319-119.998h239.996c33.12 0 59.998-26.88 59.998-59.998v-599.99c0-33.199-26.88-59.998-59.998-59.998h-599.99c-33.199 0-59.998 26.799-59.998 59.998v135.037l-119.998 89.998v-225.037c0-99.437 80.559-179.996 179.996-179.996zM296.004 400c10.56-7.92 23.28-12 36-12 9.12 0 18.319 2.081 26.799 6.319 20.319 10.241 33.199 30.96 33.199 53.679v59.998c190.237 0 350.713-126.557 402.393-299.994 11.28 38.079 17.599 78.238 17.599 119.998 0 231.997-188.077 419.992-419.992 419.992v59.998c0 22.719-12.881 43.519-33.199 53.679-8.479 4.241-17.68 6.319-26.799 6.319-12.72 0-25.44-4.080-36-12l-239.996-179.996c-15.12-11.28-24-29.119-24-48s8.88-36.72 24-48l239.996-179.996z" glyph-name="tixian" unicode=""/><glyph d="M438.865-32c-227.245 0-411.429 92.091-411.429 205.715 0 41.965 25.44 80.915 68.571 113.485v160.8c0 141.669 85.92 263.109 208.456 315.429-1.784 8.845-2.744 18.035-2.744 27.429 0 75.771 61.371 137.144 137.144 137.144s137.144-61.371 137.144-137.144c0-9.395-0.96-18.584-2.744-27.429 122.536-52.32 208.456-173.76 208.456-315.429v-160.8c43.131-32.571 68.571-71.52 68.571-113.485 0-113.624-184.184-205.715-411.429-205.715zM438.865 310.856c-151.475 0-274.285-61.371-274.285-137.144s122.811-137.144 274.285-137.144c151.475 0 274.285 61.371 274.285 137.144s-122.811 137.144-274.285 137.144zM438.865 105.144c-66.995 0-122.536 48.069-134.536 111.496 36.136 15.771 82.835 25.645 134.536 25.645s98.4-9.875 134.536-25.645c-12-63.429-67.611-111.496-134.536-111.496z" glyph-name="bell" horiz-adv-x="878" unicode=""/><glyph d="M977.27-3.025l-14.245-14.245c-19.525-19.525-51.297-19.525-70.903 0l-204.306 204.385c-68.422-50.896-152.929-81.386-244.799-81.386-227.112 0-411.173 184.139-411.173 411.252s184.059 411.173 411.173 411.173c227.112 0 411.252-184.059 411.252-411.173 0-91.869-30.49-176.377-81.386-244.799l204.385-204.306c19.525-19.607 19.525-51.376 0-70.903zM732.551 543.711c-13.524 148.047-137.883 264.084-289.532 264.084-160.612 0-290.813-130.201-290.813-290.813 0-160.691 130.201-290.893 290.813-290.893 151.649 0 276.009 116.037 289.532 264.084 0.799 8.723 1.361 17.605 1.361 26.569 0 0.079 0 0.161 0 0.24s0 0.161 0 0.24c0 8.963-0.559 17.766-1.361 26.489zM272.563 516.981c0-71.302 27.529-135.563 71.463-181.179-76.425 24.807-131.641 96.51-131.641 181.179s55.218 156.29 131.641 181.179c-43.934-45.695-71.463-109.875-71.463-181.179z" glyph-name="search" unicode=""/><glyph d="M511.839-31.994c-265.037 0-479.994 214.877-479.994 479.994s214.957 479.994 479.994 479.994c265.117 0 479.994-214.877 479.994-479.994s-214.877-479.994-479.994-479.994zM511.839 817.275c-203.917 0-369.195-165.358-369.195-369.275s165.279-369.195 369.195-369.195c203.917 0 369.275 165.279 369.275 369.195s-165.358 369.275-369.275 369.275zM455.281 261.443c-6.799-6.799-17.921-6.799-24.72 0l-5.441 5.52v-0.079l-5.839 5.921-25.759 25.68c-0.079 0.079 0 0.24-0.079 0.319l-117.679 118.558c-6.799 6.799-6.799 17.839 0 24.64l37.039 37.039c6.799 6.799 17.839 6.799 24.64 0l105.598-106.399 221.998 221.998c6.881 6.881 17.921 6.881 24.72 0l37.039-36.96c6.799-6.881 6.799-17.921 0-24.72l-271.517-271.517z" glyph-name="check" unicode=""/><glyph d="M939.787 200.427l-180.214-180.214c-70.404-70.404-184.459-70.404-254.863 0l-420.498 420.498c-35.161 35.161-52.783 81.297-52.783 127.431v360.428h360.428c46.134 0 92.27-17.621 127.431-52.783l420.498-420.498c70.404-70.404 70.404-184.459 0-254.863zM854.807 370.309l-420.498 420.498c-11.695 11.774-27.073 17.621-42.451 17.621h-240.286v-240.286c0-15.378 5.847-30.756 17.621-42.451l420.498-420.498c23.387-23.469 61.433-23.469 84.901 0l180.214 180.214c23.469 23.469 23.469 61.433 0 84.901zM271.714 628.214c-33.16 0-60.072 26.912-60.072 60.072s26.912 60.072 60.072 60.072c33.16 0 60.072-26.912 60.072-60.072s-26.912-60.072-60.072-60.072z" glyph-name="tag" unicode=""/><glyph d="M653.032 656.383c-71.883 0-137.006-18.694-177.105-48.092v183.94c0 70.509-94.518 125.723-218.362 125.723-123.807 0-220.351-55.214-220.351-125.723 0 262.041 0-543.249 0-543.249s0 0 0-0.036 0-0.036 0-0.073v-4.339h0.397c3.978-68.377 98.785-121.348 219.954-121.348 0 0 0.036 0 0.073 0l0.109 29.037-0.182-48.272c0-0.036 0-0.073 0-0.146s0-0.109 0-0.182v-4.266h0.361c4.015-68.377 99.255-121.311 220.46-121.311 122.579 0 218.726 54.165 220.642 123.664h0.182v34.243c99.725 11.644 167.596 60.493 169.26 120.987h0.182v273.685c0 70.545-91.771 125.76-215.614 125.76zM478.385 113.858c-100.34 0-170.813 40.28-174.321 77.595l0.036 5.64c0.218 2.82 0.867 5.64 1.807 8.46 40.171-28.458 101.932-46.427 172.478-46.427 70.582 0 132.412 18.007 172.55 46.536 1.264-3.581 2.098-7.377 2.098-11.316 0-38.076-71.776-80.488-174.646-80.488zM653.032 284.889c0-38.076-71.776-80.488-174.646-80.488-97.881 0-167.38 38.328-173.997 74.812l0.036 5.676h-0.688c0 38.076 71.704 80.488 174.646 80.488 102.872 0 174.646-42.415 174.646-80.488zM257.564 349.54c-101.135 0-171.971 40.969-174.394 78.502v4.121c0.218 3.038 0.867 6.074 1.916 9.112 40.135-28.494 101.932-46.463 172.478-46.463 70.582 0 132.34 17.972 172.514 46.463 1.301-3.76 2.135-7.484 2.135-11.247 0-7.702-3.075-15.586-8.642-23.287-56.843-8.026-104.246-28.167-133.644-55.684-10.413-0.904-21.153-1.519-32.363-1.519zM451.085 409.636c-0.723-0.036-1.41-0.109-2.098-0.182 0.688 0.073 1.374 0.146 2.098 0.182zM85.123 622.358c40.135-28.458 101.896-46.427 172.441-46.427s132.306 17.972 172.478 46.427c1.301-3.724 2.169-7.484 2.169-11.247 0-38.040-71.704-80.453-174.646-80.453-99.364 0-169.476 39.522-174.176 76.549v7.919c0.324 2.386 0.867 4.809 1.734 7.232zM83.494 696.772v9.365c0.324 2.241 0.831 4.521 1.628 6.762 40.135-28.458 101.896-46.427 172.441-46.427 70.618 0 132.449 18.007 172.587 46.536 1.264-3.581 2.062-7.377 2.062-11.316 0-38.076-71.704-80.488-174.646-80.488-98.497 0-168.248 38.834-174.070 75.573zM85.050 531.851c40.135-28.494 101.932-46.463 172.514-46.463 70.545 0 132.34 17.972 172.478 46.427 1.301-3.724 2.169-7.484 2.169-11.247 0-38.040-71.704-80.488-174.646-80.488-100.231 0-170.707 40.28-174.285 77.526v6.437c0.288 2.605 0.867 5.206 1.771 7.811zM257.564 872.685c102.945 0 174.646-42.415 174.646-80.453 0-38.076-71.704-80.488-174.646-80.488-97.629 0-167.089 38.184-173.96 74.596l0.036 5.895h-0.688c0 38.040 71.704 80.453 174.61 80.453zM257.564 194.346c0-1.301 0.288-2.605 0.324-3.869l-0.073-22.020c-0.109 0-0.182 0-0.252 0-102.872 0-174.576 42.379-174.61 80.453v0.073c0 3.942 0.831 7.666 2.098 11.247 40.135-28.494 101.932-46.5 172.514-46.5 0.146 0 0.288 0.036 0.434 0.036l-0.073-16.344c-0.036-1.013-0.361-2.026-0.361-3.075zM257.998 221.212l0.146 37.821c-0.182 0-0.361-0.036-0.579-0.036-102.005 0-173.236 41.69-174.503 79.478v1.953c0.073 3.436 0.867 6.871 2.062 10.307 40.135-28.494 101.896-46.463 172.441-46.463 0.94 0 1.844 0.109 2.784 0.109 0 0 0.036 0 0.036 0.036-1.698-6.365-2.82-12.836-2.82-19.525 0-2.532 0.397-5.027 0.652-7.556l-0.218-56.118zM279.657 340.282v0 0zM271.267 328.893c0 0-0.036 0-0.036-0.036 0 0.036 0.036 0.036 0.036 0.036zM478.385 23.315c-102.836 0-174.467 42.306-174.646 80.346v0.288c0.036 3.651 0.904 7.377 2.169 11.065 40.135-28.458 101.932-46.427 172.478-46.427s132.306 17.972 172.441 46.427c1.301-3.724 2.204-7.484 2.204-11.21 0-38.076-71.776-80.488-174.646-80.488zM699.206 181.62v44.98c51.057 5.967 95.207 21.587 126.302 43.643 1.301-3.76 2.169-7.484 2.169-11.247 0-32.036-50.948-67.073-128.473-77.38zM699.206 272.16v12.728c0 10.956-2.605 21.477-7.014 31.566 54.022 5.316 100.774 21.299 133.282 44.332 1.337-3.76 2.204-7.484 2.204-11.247 0-32.036-50.948-67.073-128.473-77.38zM656.721 359.701c-37.242 29-95.856 48.128-163.872 50.551-7.884 8.46-12.908 17.247-13.994 25.999v7.414c0.288 2.568 0.831 5.097 1.734 7.666 40.171-28.458 101.896-46.427 172.441-46.427 70.618 0 132.449 18.007 172.587 46.5 1.264-3.581 2.062-7.341 2.062-11.316 0-37.606-70.075-79.333-170.958-80.382zM653.032 450.169c-97.772 0-167.271 38.255-173.997 74.739l0.036 5.713h-0.688c0 38.076 71.74 80.488 174.646 80.488s174.646-42.415 174.646-80.488c0-38.040-71.74-80.453-174.646-80.453z" glyph-name="coins" horiz-adv-x="906" unicode=""/><glyph d="M512-32c-265.121 0-480 214.934-480 480s214.879 480 480 480c265.066 0 480-214.934 480-480s-214.934-480-480-480zM512 808c-198.826 0-360-161.174-360-360 0-198.881 161.174-360 360-360s360 161.119 360 360c0 198.826-161.174 360-360 360zM512 148c-64.639 0-124.106 20.854-173.066 55.68-4.373 10.507-6.934 22.133-6.934 34.294v0c9.281 55.039 46.294 101.28 93.386 127.361-20.64 21.494-33.386 50.561-33.386 82.666v60c0 66.293 53.707 120 120 120s120-53.707 120-120v-60c0-32.107-12.799-61.174-33.334-82.666 47.040-26.081 84.053-72.319 93.334-127.361v0c0-12.161-2.561-23.786-6.934-34.294-48.96-34.826-108.427-55.68-173.066-55.68z" glyph-name="zh" unicode=""/><glyph d="M766.929 449.109l295.958 295.958c49.653 49.653 49.39 128.986 0.322 178.084-49.448 49.419-128.811 48.951-178.084-0.322l-295.958-295.958-295.987 295.958c-49.273 49.273-128.635 49.741-178.084 0.322-49.097-49.097-49.36-128.402 0.322-178.084l295.958-295.958-295.958-295.958c-49.653-49.653-49.39-128.986-0.322-178.084 49.419-49.419 128.811-48.951 178.084 0.322l295.987 295.958 295.958-295.958c49.273-49.273 128.635-49.741 178.084-0.322 49.097 49.097 49.36 128.402-0.322 178.084l-295.958 295.958z" glyph-name="cha" horiz-adv-x="1170" unicode=""/><glyph d="M511.829-64c-282.709 0-512 229.205-512 512s229.291 512 512 512c282.795 0 512-229.205 512-512s-229.205-512-512-512zM511.829 841.813c-217.515 0-393.813-176.299-393.813-393.813s176.299-393.813 393.813-393.813c217.515 0 393.899 176.299 393.899 393.813s-176.384 393.813-393.899 393.813zM690.517 308.736l-39.851-39.851c-7.424-7.339-19.285-7.339-26.624 0l-113.067 112.981-112.981-112.981c-7.339-7.339-19.285-7.339-26.624 0l-39.936 39.851c-7.253 7.339-7.253 19.285 0 26.624l113.067 112.981-113.067 113.067c-7.253 7.339-7.253 19.285 0 26.624l39.936 39.851c7.339 7.339 19.285 7.339 26.624 0l112.981-112.981 113.067 112.981c7.339 7.339 19.2 7.339 26.624 0l39.851-39.851c7.339-7.339 7.339-19.285 0-26.624l-113.067-113.067 113.067-112.981c7.339-7.339 7.339-19.285 0-26.624z" glyph-name="error" unicode=""/><glyph d="M511.898-63.795c-282.675 0-511.898 229.171-511.898 511.898s229.222 511.898 511.898 511.898c282.726 0 511.846-229.171 511.846-511.898s-229.12-511.898-511.846-511.898zM511.898 856.883c-226.406 0-409.907-182.374-409.907-408.781 0-226.355 183.501-409.907 409.907-409.907 226.355 0 409.856 183.552 409.856 409.907 0 226.406-183.501 408.781-409.856 408.781zM758.323 387.789h-247.040c-29.235 0-50.432 21.197-50.432 50.381v327.731c0 29.235 21.197 52.941 50.432 52.941s52.941-23.706 52.941-52.941v-273.664l194.099-1.126c29.235 0 52.941-23.706 52.941-52.941 0-29.184-23.706-50.381-52.941-50.381z" glyph-name="clock" unicode=""/><glyph d="M1062.016-61.184c0 0 2.752 166.72-24.832 202.816-11.008 13.888-33.664 36.288-157.824 114.112 13.312 38.272 1.024 81.472 3.2 80.384 3.52-1.792-0.896 26.112-0.896 26.112s-85.632 76.608-84.736 145.792c0.896 69.184 0 150.656 0 150.656s23.104 167.744 134.336 167.744l86.144-33.984c99.968 0 127.232-133.76 127.232-133.76v-160.768c0 0-21.76-94.656-84.48-130.048 0 0-4.416-27.84-0.896-26.048 3.584 1.792-16-125.312 92.864-141.44 108.8-16.192 189.504-83.904 210.048-103.68 20.48-19.712 45.888-158.784 45.888-158.784l-346.048 0.896zM722.752 254.848c131.264-19.52 228.544-101.184 253.312-124.992 24.704-23.808 38.72-193.792 38.72-193.792h-1014.912c0 0-1.408 137.984 41.472 193.792 24.768 23.808 133.44 105.472 264.704 124.992 110.976 12.096 87.296 165.952 91.584 163.776s-1.088 31.424-1.088 31.424c0 0-88.448 92.416-87.36 175.872 1.088 83.392 0 138.112 0 138.112s12.992 196.032 147.2 196.032l103.872-43.968c120.576 0 141.952-152.064 141.952-152.064v-150.272c0 0-12.544-114.24-88.128-156.864 0 0-5.376-33.6-1.088-31.424s-21.504-151.104 109.76-170.624z" glyph-name="users" horiz-adv-x="1408" unicode=""/><glyph d="M512.4 959.524c-282.77 0-511.962-229.193-511.962-511.981 0-282.787 229.193-512 511.962-512 282.806 0 512.038 229.213 512.038 512-0.001 282.789-229.233 511.981-512.038 511.981zM843.025 577.739l-358.411-358.393c-2.304-2.246-5.143-3.356-7.675-5.084-1.766-2.571-2.802-5.468-5.104-7.714-10.017-9.997-23.104-15.005-36.191-15.005-13.124 0-26.21 5.008-36.228 15.005l-153.59 153.589c-19.995 19.995-19.995 52.406 0 72.419 19.995 19.994 52.424 19.994 72.42 0l117.397-117.398 334.963 334.982c20.034 19.995 52.425 19.995 72.42 0 19.996-19.992 19.996-52.404 0.003-72.4z" glyph-name="gou" unicode=""/><glyph d="M512.476 959.533c-282.78 0-512.040-229.22-512.040-511.961 0-282.78 229.261-512.038 512.040-512.038 282.739 0 511.96 229.259 511.96 512.038 0 282.741-229.22 511.961-511.96 511.961zM736.752 292.268c19.053-19.054 19.053-49.955 0-69.047-19.054-19.054-49.994-19.017-69.009 0.075l-155.265 155.23-155.269-155.306c-19.093-19.017-49.994-19.017-69.009 0-19.092 19.092-19.092 49.992-0.039 69.047l155.269 155.306-155.232 155.228c-19.092 19.056-19.092 49.954-0.039 69.045 19.054 19.015 49.992 19.015 69.047 0l155.269-155.268 155.265 155.268c19.015 19.015 49.955 19.015 69.009 0 19.053-19.093 19.053-49.991 0-69.045l-155.268-155.268 155.269-155.267z" glyph-name="chahao" unicode=""/><glyph d="M722.261-64h-659.456c-34.679 0-62.805 28.672-62.805 64v896c0 35.362 28.126 64 62.805 64h659.456c34.679 0 62.805-28.638 62.805-64v-896c0-35.328-28.126-64-62.805-64zM314.027 32.017c0-17.681 14.063-32.017 31.403-32.017h94.208c17.34 0 31.403 14.336 31.403 32.017v95.983c0 17.681-14.063 32.017-31.403 32.017h-94.208c-17.34 0-31.403-14.336-31.403-32.017v-95.983zM314.027 256c0-17.681 14.063-31.983 31.403-31.983h94.208c17.34 0 31.403 14.302 31.403 31.983v96.017c0 17.681-14.063 31.983-31.403 31.983h-94.208c-17.34 0-31.403-14.302-31.403-31.983v-96.017zM314.027 480.017c0-17.681 14.063-32.017 31.403-32.017h94.208c17.34 0 31.403 14.336 31.403 32.017v95.983c0 17.681-14.063 32.017-31.403 32.017h-94.208c-17.34 0-31.403-14.336-31.403-32.017v-95.983zM94.208 32.017c0-17.681 14.063-32.017 31.403-32.017h94.208c17.34 0 31.403 14.336 31.403 32.017v95.983c0 17.681-14.063 32.017-31.403 32.017h-94.208c-17.34 0-31.403-14.336-31.403-32.017v-95.983zM94.208 256c0-17.681 14.063-31.983 31.403-31.983h94.208c17.34 0 31.403 14.302 31.403 31.983v96.017c0 17.681-14.063 31.983-31.403 31.983h-94.208c-17.34 0-31.403-14.302-31.403-31.983v-96.017zM94.208 480.017c0-17.681 14.063-32.017 31.403-32.017h94.208c17.34 0 31.403 14.336 31.403 32.017v95.983c0 17.681-14.063 32.017-31.403 32.017h-94.208c-17.34 0-31.403-14.336-31.403-32.017v-95.983zM682.325 857.6h-579.584v-136.533h579.584v136.533zM690.859 576c0 17.681-14.063 32.017-31.403 32.017h-94.208c-17.34 0-31.403-14.336-31.403-32.017v-95.983c0-17.681 14.063-32.017 31.403-32.017h94.208c17.34 0 31.403 14.336 31.403 32.017v95.983zM690.859 352.017c0 17.681-14.063 31.983-31.403 31.983h-94.208c-17.34 0-31.403-14.302-31.403-31.983v-96.017c0-17.681 14.063-31.983 31.403-31.983h94.208c17.34 0 31.403 14.302 31.403 31.983v96.017zM690.859 128c0 17.681-14.063 32.017-31.403 32.017h-94.208c-17.34 0-31.403-14.336-31.403-32.017v-95.983c0-17.681 14.063-32.017 31.403-32.017h94.208c17.34 0 31.403 14.336 31.403 32.017v95.983z" glyph-name="calculator" horiz-adv-x="785" unicode=""/><glyph d="M0-63.957c0 0 25.984 143.744 71.595 153.344 286.549 60.117 303.573 220.288 303.573 220.288 0 44.928 0 52.608 0 82.603-14.933 21.504-28.075 81.28-39.083 108.16-3.157-1.195-6.4-2.091-9.685-2.091-30.037 0-39.979 57.856-48.768 102.229-4.565 23.083-4.949 42.325-0.341 55.765-0.043 2.091-0.341 4.224-0.341 6.315 0 158.464 62.123 278.869 200.917 295.595 0 0 51.2 2.688 34.133 2.176v0c0 0 0 0 0 0-16.981 0 34.133-2.176 34.133-2.176 138.752-16.725 200.917-137.131 200.917-295.595 0-2.091-0.299-4.224-0.341-6.315 4.608-13.44 4.224-32.683-0.341-55.765-8.789-44.373-18.773-102.229-48.768-102.229-3.285 0-6.528 0.896-9.685 2.091-11.051-26.88-24.149-86.656-39.083-108.16 0-29.995 0-37.675 0-82.603 0 0 16.981-160.171 303.573-220.288 45.611-9.6 71.595-153.344 71.595-153.344h-1024z" glyph-name="user02" unicode=""/><glyph d="M906.281 121.287h-786.532c-49.115 0-84.691 38.892-84.691 86.64v480.111c0 47.761 35.576 86.677 84.691 86.677h786.532c49.115 0 84.704-36.955 84.704-84.704v-484.019c0-47.749-35.589-84.704-84.704-84.704zM942.582 690.009c0 25.944-9.619 36.301-36.301 36.301h-786.532c-26.682 0-36.301-10.357-36.301-36.301v-72.602h859.134v72.602zM942.582 508.503h-859.134v-302.513c0-25.944 9.619-36.301 36.301-36.301h786.532c26.682 0 36.301-1.742 36.301 24.2v314.611zM386.083 290.828h278.323v-48.752h-278.323v48.752zM180.325 290.828h181.434v-48.752h-181.434v48.752z" glyph-name="chongzhi" horiz-adv-x="1026" unicode=""/><glyph d="M993.48 334.613v-134.397h-1.446l0.241-7.932c0-69.86-100.652-124.475-229.17-124.475-128.504 0-229.17 59.823-229.17 128.518l0.496 7.959h-1.66v3.435c-8.289-0.496-16.663-0.835-25.229-0.835-7.552 0-8.465 0.634-15.79 1.038v-12.178h-1.571c-4.168-66.693-107.799-118.24-231.691-118.24-123.966 0-221.4 51.626-225.43 118.24h-1.558v292.236c-1.191 5.285-0.126 10.658-0.126 16.143 0 70.454 98.713 125.653 227.116 125.653 7.464 0 14.802-0.227 22.062-0.594v57.213c-1.205 5.285-2.016 10.658-2.016 16.143 0 70.454 100.587 125.653 229.003 125.653 128.403 0 225.86-55.199 225.86-125.653 0-5.488 0.444-10.859-0.76-16.143v-208.641c8.289 0.482 18.563 0.774 27.117 0.774 128.403 0 233.212-56.021 233.212-127.53 0-5.576 1.711-11.011 0.506-16.384zM491.756 241.235c7.274-0.444 8.339-0.736 15.79-0.736 8.53 0 16.93 0.404 25.229 0.974v35.391c-8.275-0.546-16.639-0.95-25.229-0.95-7.487 0-8.553 0.292-15.79 0.723v-35.405zM491.756 310.27c7.274-0.431 8.339-0.736 15.79-0.736 8.53 0 16.93 0.404 25.229 0.988v26.193c-1.025 4.538-1.66 9.137-1.85 13.811-7.667-0.468-15.422-0.811-23.379-0.811-7.487 0-8.553 0.292-15.79 0.723v-40.17zM491.756 384.057c7.274-0.444 8.339-0.736 15.79-0.736 10.38 0 20.579 0.482 30.616 1.317 7.628 16.611 21.085 31.793 39.258 44.885-21.974-3.778-45.302-6.032-69.873-6.032-7.487 0-8.553 0.306-15.79 0.723v-40.157zM258.494 111.121c99.233 0 189.505 39.081 194.701 84.621h-0.672v11.975c-39.662-34.126-112.664-56.428-194.029-56.428s-151.225 22.303-190.9 56.388v-11.937h-0.686c5.183-45.544 92.353-84.621 191.585-84.621zM258.494 225.079c-81.366 0-151.225 22.289-190.9 56.402v-16.942c10.708-43.374 95.305-79.628 190.9-79.628 95.645 0 183.399 36.291 194.029 79.692v16.917c-39.662-34.149-112.664-56.439-194.029-56.439zM452.523 338.401v16.903c-39.662-34.139-112.664-56.428-194.029-56.428s-151.225 22.289-190.9 56.388v-16.942c10.708-43.364 95.305-79.618 190.9-79.618 95.645 0 183.399 36.291 194.029 79.692zM67.594 433.869v-21.743c10.708-43.364 95.305-79.628 190.9-79.628 95.645 0 183.399 36.291 194.029 79.706v21.669c-40.676-33.63-113.414-55.389-194.029-55.389s-150.223 21.757-190.9 55.389zM258.494 589.822c-111.31 0-188.897-45.163-188.897-85.7s77.588-85.7 188.897-85.7c111.323 0 192.027 45.163 192.027 85.7s-80.707 85.7-192.027 85.7zM316.643 632.284v-6.589c3.751-0.533 7.579-0.974 11.265-1.595-3.866 2.685-7.818 5.322-11.265 8.187zM507.543 788.237c-111.323 0-188.897-45.163-188.897-85.7s77.578-85.7 188.897-85.7c111.31 0 185.754 45.163 185.754 85.7s-74.446 85.7-185.754 85.7zM695.314 632.284c-40.69-33.63-107.165-55.389-187.77-55.389-24.38 0-47.569 2.206-69.428 5.906 21.098-14.585 42.563-31.895 50.105-50.977 8.414-0.557 10.681-0.913 19.324-0.913 95.635 0 177.126 36.291 187.77 79.706v21.669zM695.314 553.732c-39.675-34.149-106.405-56.439-187.77-56.439-6.945 0-7.487 0.241-14.205 0.607-0.356-3.347-0.862-6.653-1.585-9.921v-30.134c7.274-0.431 8.339-0.723 15.79-0.723 95.635 0 177.126 36.291 187.77 79.692v16.917zM698.443 479.932c-3.017-2.597-6.537-4.979-9.897-7.437 3.245 0.57 6.589 1.014 9.897 1.497v5.943zM763.108 437.976c-112.969 0-191.698-45.845-191.698-86.98s78.728-86.966 191.698-86.966c112.982 0 191.711 45.835 191.711 86.966s-78.728 86.98-191.711 86.98zM956.847 279.705c-41.273-34.139-111.917-56.225-193.737-56.225-81.81 0-152.454 22.086-193.737 56.225v-22.075c10.872-44.010 96.735-80.809 193.737-80.809 97.067 0 182.943 36.837 193.737 80.884v21.998zM957.732 200.216h-0.621c-40.208-34.784-111.231-57.518-194.006-57.518-82.785 0-153.835 22.745-194.043 57.518h-0.546l-0.329-8.91c1.038-47.695 91.68-89.373 194.918-89.373 103.845 0 194.929 42.146 194.929 90.198l-0.306 8.085zM799.274 360.133c9.036-4.562 13.559-11.001 13.559-19.286 0-10.95-6.222-18.905-18.653-23.847-7.603-3.041-16.601-4.826-27.017-5.346v-13.102h-9.782v12.962c-13.241 0.964-23.115 2.838-29.638 5.614-11.492 4.993-17.132 13.509-16.93 25.545h27.218c0.937-5.475 2.244-9.148 3.927-11.011 2.624-2.915 7.756-4.803 15.422-5.678v27.825l-8.16 1.558c-12.837 2.434-21.896 5.828-27.167 10.176-5.285 4.334-7.919 9.568-7.919 15.702 0 4.042 1.025 7.705 3.078 11.011s4.918 6.147 8.617 8.54c4.765 3.078 10.087 5.207 15.929 6.388 3.561 0.736 8.768 1.28 15.623 1.623v8.669h9.782v-8.794c10.898-0.57 19.462-2.305 25.687-5.22 11.302-4.65 17.157-12.178 17.561-22.606h-26.523c-0.533 3.866-1.521 6.69-2.977 8.479-2.535 3.078-7.107 4.776-13.75 5.081v-24.825c15.916-3.574 26.624-6.717 32.109-9.453zM767.162 326.172c5.248 0.444 9.060 1.228 11.455 2.355 4.195 1.989 6.286 5.448 6.286 10.352 0 3.737-1.965 6.69-5.879 8.869-2.332 1.256-6.286 2.559-11.859 3.904v-25.483zM757.379 394.272c-5.842-0.075-10.176-1.090-13-3.028-2.827-1.925-4.232-4.575-4.232-7.919 0-3.649 2.115-6.537 6.347-8.656 2.355-1.178 5.98-2.267 10.885-3.269v22.873zM545.116 702.842c9.036-4.562 13.546-10.987 13.546-19.286 0-10.95-6.208-18.892-18.641-23.847-7.603-3.041-16.601-4.826-27.017-5.346v-13.091h-9.782v12.962c-13.241 0.95-23.115 2.827-29.638 5.6-11.492 4.993-17.132 13.509-16.93 25.545h27.218c0.937-5.475 2.244-9.148 3.927-11.011 2.624-2.915 7.756-4.803 15.422-5.678v27.825l-8.16 1.571c-12.837 2.434-21.896 5.818-27.167 10.162-5.285 4.348-7.919 9.578-7.919 15.702 0 4.042 1.025 7.719 3.078 11.011 2.040 3.306 4.918 6.147 8.617 8.54 4.765 3.078 10.087 5.22 15.929 6.388 3.561 0.736 8.768 1.28 15.623 1.623v8.669h9.782v-8.794c10.898-0.557 19.462-2.294 25.687-5.207 11.302-4.65 17.157-12.19 17.561-22.619h-26.523c-0.533 3.876-1.521 6.69-2.977 8.479-2.535 3.078-7.107 4.776-13.75 5.081v-24.825c15.916-3.561 26.624-6.717 32.109-9.453zM513.005 668.894c5.248 0.431 9.060 1.215 11.455 2.345 4.195 2.003 6.286 5.448 6.286 10.366 0 3.727-1.965 6.69-5.879 8.859-2.332 1.256-6.286 2.559-11.859 3.917v-25.483zM503.222 736.991c-5.842-0.088-10.19-1.103-13-3.028-2.827-1.938-4.232-4.575-4.232-7.919 0-3.649 2.115-6.537 6.347-8.669 2.345-1.178 5.98-2.257 10.885-3.255v22.873zM297.673 506.43c9.021-4.562 13.546-10.987 13.546-19.286 0-10.95-6.222-18.892-18.653-23.847-7.59-3.041-16.601-4.816-27.017-5.346v-13.091h-9.782v12.962c-13.241 0.964-23.115 2.827-29.638 5.6-11.492 4.993-17.132 13.509-16.93 25.545h27.218c0.937-5.475 2.244-9.148 3.927-11.011 2.624-2.915 7.769-4.803 15.422-5.665v27.815l-8.16 1.571c-12.837 2.434-21.896 5.818-27.167 10.162-5.285 4.348-7.919 9.578-7.919 15.702 0 4.042 1.025 7.719 3.078 11.011 2.054 3.306 4.918 6.157 8.617 8.54 4.776 3.078 10.087 5.22 15.929 6.388 3.561 0.736 8.768 1.28 15.623 1.636v8.656h9.782v-8.794c10.898-0.557 19.462-2.294 25.687-5.207 11.302-4.65 17.157-12.19 17.561-22.619h-26.508c-0.533 3.876-1.534 6.69-2.991 8.479-2.522 3.078-7.107 4.776-13.75 5.081v-24.825c15.929-3.561 26.624-6.717 32.123-9.453zM265.551 472.481c5.248 0.431 9.073 1.215 11.455 2.345 4.195 2.003 6.286 5.448 6.286 10.366 0 3.737-1.965 6.69-5.879 8.859-2.332 1.256-6.286 2.559-11.859 3.917v-25.483zM255.768 540.58c-5.842-0.088-10.176-1.103-13-3.028-2.827-1.938-4.232-4.575-4.232-7.919 0-3.649 2.115-6.537 6.347-8.669 2.355-1.178 5.98-2.257 10.885-3.255v22.873z" glyph-name="touzi" horiz-adv-x="1025" unicode=""/><glyph d="M944.902-0.001h-867.097c3.5 179.403 116.452 331.996 275.204 394.070-71.388 49.924-118.188 132.423-118.188 225.944 0 152.42 123.974 275.986 276.907 275.986s276.907-123.564 276.907-275.986c0-93.636-46.899-176.233-118.458-226.131 158.508-62.216 271.206-214.668 274.717-393.883zM710.252 619.946c0 109.212-88.854 197.765-198.436 197.765-109.595 0-198.436-88.561-198.436-197.765 0-109.236 88.844-197.78 198.436-197.78 109.578 0 198.436 88.546 198.436 197.78zM535.337 345.223c-7.798-0.653-15.633-1.196-23.608-1.196-8.148 0-16.188 0.53-24.154 1.221-157.033-10.469-290.040-125.636-327.798-274.293h697.363c-34.297 149.846-163.716 263.452-321.803 274.26z" glyph-name="zhuce" horiz-adv-x="1025" unicode=""/><glyph d="M830.211 656.802l151.818 256.598 151.818-256.598h-303.639zM630.735 928.144h303.639l-151.818-265.444-151.818 265.444zM432.218 656.802l151.818 256.598 151.818-256.598h-303.639zM236.033 928.144h303.639l-151.818-265.444-151.818 265.444zM36.556 656.802l151.818 256.598 151.818-256.598h-303.639zM565.591-30.841l-525.813 645.403h314.953l210.86-645.403zM758.348 614.562l-160.186-646.773-186.242 646.773h346.428zM1132.685 614.562l-506.27-645.403 193.717 645.403h312.553z" glyph-name="zhuan" horiz-adv-x="1170" unicode=""/><glyph d="M512 864c-111.118 0-215.584-43.272-294.156-121.844s-121.844-183.038-121.844-294.156c0-111.118 43.272-215.584 121.844-294.156s183.038-121.844 294.156-121.844c111.118 0 215.584 43.272 294.156 121.844s121.844 183.038 121.844 294.156c0 111.118-43.272 215.584-121.844 294.156s-183.038 121.844-294.156 121.844zM512 960v0c282.77 0 512-229.23 512-512s-229.23-512-512-512c-282.77 0-512 229.23-512 512s229.23 512 512 512zM448 256h128v-128h-128zM448 768h128v-384h-128z" glyph-name="notification" unicode=""/></font>
</defs>
</svg>
